<mxfile host="app.diagrams.net" modified="2024-07-18T10:08:26.136Z" agent="Mozilla/5.0 (Windows NT 10.0; Win64; x64) AppleWebKit/537.36 (KHTML, like Gecko) Chrome/125.0.0.0 Safari/537.36 Edg/125.0.0.0" version="24.7.1" etag="7JMs6W79wwMCogjXGpb2" type="github">
  <diagram name="第 1 页" id="DhTuuet95OGfpnamdfmI">
    <mxGraphModel>
      <root>
        <mxCell id="0" />
        <mxCell id="1" parent="0" />
      </root>
    </mxGraphModel>
  </diagram>
</mxfile>
